<svg width="361" height="361" viewBox="0 0 361 361" fill="none" xmlns="http://www.w3.org/2000/svg">
<circle cx="180.5" cy="180.5" r="168.5" fill="#E2A5AA" stroke="#CD8188" stroke-width="24"/>
<path d="M175.188 285C147.15 284.105 120.902 270.087 101.812 242.647C100.62 240.858 99.1285 239.068 97.3392 238.471C68.4066 229.523 52.598 208.943 47.5274 180.31C42.1595 149.887 50.8085 123.343 75.5657 103.657C95.5501 87.8494 121.799 86.9552 143.572 100.376C146.256 101.868 148.345 102.166 151.327 101.271C171.014 95.0064 190.4 95.0064 210.087 101.271C211.876 101.868 214.86 101.868 216.352 100.674C245.582 83.3747 278.393 89.9364 298.974 116.779C324.923 150.781 318.661 202.976 285.252 227.434C279.287 231.907 272.128 234.293 265.566 237.574C263.179 238.766 260.793 240.258 259.301 242.347C241.703 269.191 212.473 285 175.188 285ZM180.258 280.525C229.473 280.525 270.039 240.558 270.039 191.345C270.339 141.835 230.37 101.568 180.855 101.27C131.641 101.27 91.0743 141.236 91.0743 190.45C90.7747 239.96 131.043 280.525 180.258 280.525ZM141.782 104.849C139.098 103.357 137.009 101.866 134.623 100.971C111.655 90.5308 84.5139 97.0929 68.406 116.481C53.1945 134.973 47.5273 155.853 51.7032 179.116C56.1764 203.574 69.0031 222.363 92.8656 232.206C93.7603 232.504 94.6549 232.504 95.8492 232.804C95.5517 231.909 95.5517 231.312 95.2521 231.014C92.5681 222.663 87.7952 216.101 80.6361 210.137C56.7736 190.153 54.0896 149.888 73.7763 124.536C87.498 106.939 107.183 101.569 128.062 109.92C129.254 110.517 130.746 110.815 131.94 110.218C134.922 108.726 138.203 106.938 141.782 104.849ZM265.268 232.803C274.217 230.714 285.252 223.558 291.814 215.801C313.588 190.448 316.869 154.061 299.271 125.726C287.041 106.04 269.741 95.0053 245.88 95.6024C236.334 95.8999 227.685 98.8834 219.333 104.551C222.615 106.34 225.001 108.129 227.982 109.024C229.772 109.621 232.158 109.918 233.65 109.321C250.653 102.462 265.864 104.848 279.883 116.48C309.711 141.534 306.43 194.028 273.618 215.503C272.426 216.397 271.232 217.292 270.635 218.784C268.845 223.257 267.354 228.029 265.267 232.802L265.268 232.803Z" fill="#3A1D20"/>
<path d="M117.323 192.837C122.991 192.837 127.464 197.31 127.464 202.978C127.464 208.345 122.99 212.82 117.621 212.82C111.953 212.82 107.48 208.347 107.48 202.68C107.48 197.31 111.955 192.837 117.323 192.837Z" fill="#3A1D20"/>
<path d="M247.669 212.821C242.001 212.821 237.528 208.348 237.528 202.68C237.528 197.313 242.001 192.838 247.371 192.838C253.039 192.838 257.512 197.311 257.512 202.978C257.512 208.346 253.037 212.821 247.669 212.821Z" fill="#3A1D20"/>
<path d="M182.048 235.19C173.994 242.349 166.837 241.752 162.064 233.102C161.467 231.909 161.767 230.118 161.767 228.926C162.959 229.523 164.153 230.118 165.048 231.015C166.539 232.207 167.434 234.296 168.926 235.19C172.505 237.874 175.786 236.383 178.172 233.401C180.856 229.823 182.945 229.523 185.926 233.104C190.102 237.876 193.98 237.577 197.856 232.507C198.453 231.909 198.751 230.717 199.348 230.418C200.243 229.821 201.437 229.523 202.629 228.926C202.629 230.118 203.226 231.312 202.629 232.207C199.051 239.366 190.997 244.436 183.242 236.085C182.945 235.785 182.646 235.488 182.048 235.19Z" fill="#3A1D20"/>
<path d="M182.645 213.716C185.629 213.716 189.804 214.013 189.207 217.891C188.61 220.575 184.734 223.856 182.048 224.156C179.959 224.453 176.977 220.577 175.486 217.891C174.591 215.802 178.172 213.716 182.645 213.716Z" fill="#3A1D20"/>
</svg>
